{
DisplayStrings = (
"",
"",
"",
"",
/dribbble,
/pinboard,
""
);
copyright = "Creative Commons CC BY-SA 2012";
date = "2013-04-13 19:37:03 +0000";
designer = "Daniel Bruce";
designerURL = www.danielbruce.se;
familyName = "Entypo & Social";
fontMaster = (
{
ascender = 750;
capHeight = 0;
customParameters = (
{
name = TypoAscender;
value = 750;
},
{
name = TypoDescender;
value = "-250";
}
);
descender = "-250";
id = "A66ED1E1-DD26-4741-8836-9BF3607492E0";
userData = {
GSCornerRadius = 2;
};
weightValue = 400;
widthValue = 5;
xHeight = 0;
}
);
glyphs = (
{
glyphname = pencil;
lastChange = "2013-04-14 00:12:55 +0100";
layers = (
{
layerId = "A66ED1E1-DD26-4741-8836-9BF3607492E0";
name = Regular;
paths = (
{
closed = 1;
nodes = (
"430 394 OFFCURVE",
"440 370 OFFCURVE",
"440 359 CURVE SMOOTH",
"440 351 LINE",
"314 225 LINE",
"169 81 LINE",
"50 55 LINE",
"75 175 LINE",
"220 319 LINE",
"346 445 LINE",
"364 449 OFFCURVE",
"385 439 OFFCURVE",
"409 415 CURVE SMOOTH"
);
},
{
closed = 1;
nodes = (
"162 95 LINE",
"174 107 LINE",
"173 122 OFFCURVE",
"165 137 OFFCURVE",
"148 154 CURVE SMOOTH",
"133 169 OFFCURVE",
"116 178 OFFCURVE",
"108 178 CURVE",
"101 179 LINE",
"90 167 LINE",
"81 127 LINE",
"100 116 OFFCURVE",
"114 102 OFFCURVE",
"122 86 CURVE"
);
}
);
width = 600;
}
);
unicode = 270F;
},
{
glyphname = browser;
lastChange = "2013-04-14 00:13:38 +0100";
layers = (
{
layerId = "A66ED1E1-DD26-4741-8836-9BF3607492E0";
name = Regular;
paths = (
{
closed = 1;
nodes = (
"500 450 LINE SMOOTH",
"528 450 OFFCURVE",
"550 427 OFFCURVE",
"550 400 CURVE SMOOTH",
"550 100 LINE SMOOTH",
"550 72 OFFCURVE",
"528 50 OFFCURVE",
"500 50 CURVE SMOOTH",
"100 50 LINE SMOOTH",
"73 50 OFFCURVE",
"50 72 OFFCURVE",
"50 100 CURVE SMOOTH",
"50 400 LINE SMOOTH",
"50 427 OFFCURVE",
"73 450 OFFCURVE",
"100 450 CURVE SMOOTH"
);
},
{
closed = 1;
nodes = (
"175 401 OFFCURVE",
"170 403 OFFCURVE",
"165 403 CURVE SMOOTH",
"154 403 OFFCURVE",
"146 394 OFFCURVE",
"146 385 CURVE SMOOTH",
"146 374 OFFCURVE",
"154 366 OFFCURVE",
"165 366 CURVE SMOOTH",
"178 366 OFFCURVE",
"184 372 OFFCURVE",
"184 385 CURVE SMOOTH",
"184 390 OFFCURVE",
"182 395 OFFCURVE",
"179 398 CURVE"
);
},
{
closed = 1;
nodes = (
"96 374 OFFCURVE",
"104 366 OFFCURVE",
"115 366 CURVE SMOOTH",
"128 366 OFFCURVE",
"134 372 OFFCURVE",
"134 385 CURVE SMOOTH",
"134 396 OFFCURVE",
"126 403 OFFCURVE",
"115 403 CURVE SMOOTH",
"104 403 OFFCURVE",
"96 394 OFFCURVE",
"96 385 CURVE SMOOTH"
);
},
{
closed = 1;
nodes = (
"501 100 LINE",
"501 330 LINE",
"100 330 LINE",
"100 100 LINE"
);
},
{
closed = 1;
nodes = (
"501 370 LINE",
"501 400 LINE",
"200 400 LINE",
"200 370 LINE"
);
}
);
width = 600;
}
);
unicode = E74E;
},
{
glyphname = brush;
lastChange = "2013-04-14 00:16:21 +0100";
layers = (
{
layerId = "A66ED1E1-DD26-4741-8836-9BF3607492E0";
name = Regular;
paths = (
{
closed = 1;
nodes = (
"134 183 OFFCURVE",
"168 179 OFFCURVE",
"195 152 CURVE SMOOTH",
"223 125 OFFCURVE",
"228 91 OFFCURVE",
"204 67 CURVE SMOOTH",
"175 39 OFFCURVE",
"137 22 OFFCURVE",
"90 16 CURVE SMOOTH",
"62 12 OFFCURVE",
"49 14 OFFCURVE",
"50 23 CURVE",
"50 24 OFFCURVE",
"51 26 OFFCURVE",
"53 28 CURVE",
"70 48 OFFCURVE",
"81 72 OFFCURVE",
"85 101 CURVE SMOOTH",
"89 129 OFFCURVE",
"97 149 OFFCURVE",
"109 160 CURVE SMOOTH"
);
},
{
closed = 1;
nodes = (
"546 466 OFFCURVE",
"388 267 OFFCURVE",
"309 190 CURVE SMOOTH",
"296 177 OFFCURVE",
"276 160 OFFCURVE",
"247 138 CURVE",
"244 136 OFFCURVE",
"242 137 OFFCURVE",
"239 142 CURVE",
"227 165 OFFCURVE",
"205 187 OFFCURVE",
"182 198 CURVE",
"177 200 OFFCURVE",
"175 203 OFFCURVE",
"178 206 CURVE",
"199 234 OFFCURVE",
"217 254 OFFCURVE",
"230 267 CURVE SMOOTH",
"309 344 OFFCURVE",
"510 500 OFFCURVE",
"529 483 CURVE"
);
}
);
width = 580;
}
);
unicode = E79A;
},
{
glyphname = codepen;
lastChange = "2013-04-13 23:53:55 +0100";
layers = (
{
layerId = "A66ED1E1-DD26-4741-8836-9BF3607492E0";
name = Regular;
paths = (
{
closed = 1;
nodes = (
"157 493 OFFCURVE",
"49 385 OFFCURVE",
"49 252 CURVE SMOOTH",
"49 120 OFFCURVE",
"157 12 OFFCURVE",
"289 12 CURVE SMOOTH",
"422 12 OFFCURVE",
"530 120 OFFCURVE",
"530 252 CURVE SMOOTH",
"530 385 OFFCURVE",
"422 493 OFFCURVE",
"289 493 CURVE SMOOTH"
);
},
{
closed = 1;
nodes = (
"179 52 OFFCURVE",
"89 142 OFFCURVE",
"89 252 CURVE SMOOTH",
"89 363 OFFCURVE",
"179 453 OFFCURVE",
"289 453 CURVE SMOOTH",
"400 453 OFFCURVE",
"490 363 OFFCURVE",
"490 252 CURVE SMOOTH",
"490 142 OFFCURVE",
"400 52 OFFCURVE",
"289 52 CURVE SMOOTH"
);
},
{
closed = 1;
nodes = (
"438 299 OFFCURVE",
"438 300 OFFCURVE",
"438 300 CURVE SMOOTH",
"438 300 OFFCURVE",
"438 301 OFFCURVE",
"438 301 CURVE SMOOTH",
"438 301 OFFCURVE",
"437 301 OFFCURVE",
"437 302 CURVE SMOOTH",
"437 302 OFFCURVE",
"437 302 OFFCURVE",
"437 302 CURVE SMOOTH",
"437 303 OFFCURVE",
"437 303 OFFCURVE",
"437 303 CURVE SMOOTH",
"437 303 OFFCURVE",
"437 304 OFFCURVE",
"436 304 CURVE SMOOTH",
"436 304 OFFCURVE",
"436 304 OFFCURVE",
"436 305 CURVE SMOOTH",
"436 305 OFFCURVE",
"436 305 OFFCURVE",
"435 305 CURVE SMOOTH",
"435 305 OFFCURVE",
"435 306 OFFCURVE",
"435 306 CURVE SMOOTH",
"435 306 OFFCURVE",
"435 306 OFFCURVE",
"434 307 CURVE SMOOTH",
"434 307 OFFCURVE",
"434 307 OFFCURVE",
"434 307 CURVE SMOOTH",
"434 307 OFFCURVE",
"433 307 OFFCURVE",
"433 308 CURVE SMOOTH",
"433 308 OFFCURVE",
"433 308 OFFCURVE",
"433 308 CURVE",
"433 308 OFFCURVE",
"432 308 OFFCURVE",
"432 308 CURVE SMOOTH",
"297 399 LINE SMOOTH",
"292 401 OFFCURVE",
"287 401 OFFCURVE",
"283 399 CURVE SMOOTH",
"147 308 LINE SMOOTH",
"147 308 OFFCURVE",
"147 308 OFFCURVE",
"147 308 CURVE",
"146 308 OFFCURVE",
"146 308 OFFCURVE",
"146 308 CURVE",
"146 307 OFFCURVE",
"146 307 OFFCURVE",
"145 307 CURVE SMOOTH",
"145 307 OFFCURVE",
"145 307 OFFCURVE",
"145 307 CURVE SMOOTH",
"145 306 OFFCURVE",
"144 306 OFFCURVE",
"144 306 CURVE",
"144 306 OFFCURVE",
"144 305 OFFCURVE",
"144 305 CURVE SMOOTH",
"144 305 OFFCURVE",
"143 305 OFFCURVE",
"143 304 CURVE SMOOTH",
"143 304 OFFCURVE",
"143 304 OFFCURVE",
"143 304 CURVE",
"143 304 OFFCURVE",
"143 304 OFFCURVE",
"142 303 CURVE SMOOTH",
"142 303 OFFCURVE",
"142 303 OFFCURVE",
"142 303 CURVE SMOOTH",
"142 302 OFFCURVE",
"142 302 OFFCURVE",
"142 302 CURVE",
"142 302 OFFCURVE",
"142 301 OFFCURVE",
"142 301 CURVE SMOOTH",
"141 301 OFFCURVE",
"141 300 OFFCURVE",
"141 300 CURVE SMOOTH",
"141 300 OFFCURVE",
"141 300 OFFCURVE",
"141 300 CURVE",
"141 299 OFFCURVE",
"141 299 OFFCURVE",
"141 298 CURVE SMOOTH",
"141 207 LINE SMOOTH",
"141 207 OFFCURVE",
"141 206 OFFCURVE",
"141 206 CURVE",
"141 206 OFFCURVE",
"141 205 OFFCURVE",
"141 205 CURVE",
"141 205 OFFCURVE",
"141 204 OFFCURVE",
"142 204 CURVE",
"142 204 OFFCURVE",
"142 204 OFFCURVE",
"142 203 CURVE",
"142 203 OFFCURVE",
"142 203 OFFCURVE",
"142 203 CURVE",
"142 202 OFFCURVE",
"142 202 OFFCURVE",
"143 202 CURVE",
"143 202 OFFCURVE",
"143 202 OFFCURVE",
"143 201 CURVE",
"143 201 OFFCURVE",
"144 201 OFFCURVE",
"144 201 CURVE",
"144 200 OFFCURVE",
"144 200 OFFCURVE",
"144 200 CURVE",
"144 200 OFFCURVE",
"144 200 OFFCURVE",
"144 199 CURVE",
"145 199 OFFCURVE",
"145 199 OFFCURVE",
"145 199 CURVE",
"145 199 OFFCURVE",
"146 198 OFFCURVE",
"146 198 CURVE",
"146 198 OFFCURVE",
"146 198 OFFCURVE",
"146 198 CURVE",
"147 198 OFFCURVE",
"147 197 OFFCURVE",
"147 197 CURVE",
"147 197 OFFCURVE",
"147 197 OFFCURVE",
"147 197 CURVE",
"283 106 LINE",
"285 104 OFFCURVE",
"287 104 OFFCURVE",
"290 104 CURVE",
"292 104 OFFCURVE",
"295 105 OFFCURVE",
"297 106 CURVE SMOOTH",
"432 197 LINE SMOOTH",
"433 197 OFFCURVE",
"433 197 OFFCURVE",
"433 197 CURVE",
"433 197 OFFCURVE",
"433 197 OFFCURVE",
"433 197 CURVE SMOOTH",
"434 197 OFFCURVE",
"434 198 OFFCURVE",
"434 198 CURVE SMOOTH",
"434 198 OFFCURVE",
"434 198 OFFCURVE",
"435 198 CURVE SMOOTH",
"435 198 OFFCURVE",
"435 199 OFFCURVE",
"435 199 CURVE SMOOTH",
"435 199 OFFCURVE",
"435 199 OFFCURVE",
"436 199 CURVE",
"436 200 OFFCURVE",
"436 200 OFFCURVE",
"436 200 CURVE SMOOTH",
"436 200 OFFCURVE",
"436 201 OFFCURVE",
"436 201 CURVE SMOOTH",
"437 201 OFFCURVE",
"437 201 OFFCURVE",
"437 202 CURVE SMOOTH",
"437 202 OFFCURVE",
"437 202 OFFCURVE",
"437 202 CURVE SMOOTH",
"437 203 OFFCURVE",
"437 203 OFFCURVE",
"438 203 CURVE SMOOTH",
"438 203 OFFCURVE",
"438 204 OFFCURVE",
"438 204 CURVE SMOOTH",
"438 204 OFFCURVE",
"438 205 OFFCURVE",
"438 205 CURVE SMOOTH",
"438 205 OFFCURVE",
"438 205 OFFCURVE",
"438 205 CURVE SMOOTH",
"438 206 OFFCURVE",
"438 207 OFFCURVE",
"438 207 CURVE SMOOTH",
"438 298 LINE",
"438 298 OFFCURVE",
"438 299 OFFCURVE",
"438 299 CURVE"
);
},
{
closed = 1;
nodes = (
"402 298 LINE",
"358 268 LINE",
"302 305 LINE",
"302 364 LINE"
);
},
{
closed = 1;
nodes = (
"277 305 LINE",
"222 268 LINE",
"177 298 LINE",
"277 364 LINE"
);
},
{
closed = 1;
nodes = (
"199 252 LINE",
"167 231 LINE",
"167 274 LINE"
);
},
{
closed = 1;
nodes = (
"177 207 LINE",
"222 237 LINE",
"277 200 LINE",
"277 141 LINE"
);
},
{
closed = 1;
nodes = (
"244 252 LINE",
"290 283 LINE",
"335 252 LINE",
"290 222 LINE"
);
},
{
closed = 1;
nodes = (
"302 200 LINE",
"358 237 LINE",
"402 207 LINE",
"302 141 LINE"
);
},
{
closed = 1;
nodes = (
"381 252 LINE",
"413 274 LINE",
"413 231 LINE"
);
}
);
width = 580;
},
{
associatedMasterId = "A66ED1E1-DD26-4741-8836-9BF3607492E0";
layerId = "4C16C8F2-33D2-4D6A-B75E-1ABED1C20262";
name = "(null) Apr 13 13, 23:05";
paths = (
{
closed = 1;
nodes = (
"325 221 OFFCURVE",
"329 213 OFFCURVE",
"329 202 CURVE SMOOTH",
"329 178 OFFCURVE",
"318 172 OFFCURVE",
"286 172 CURVE SMOOTH",
"260 172 LINE",
"260 230 LINE",
"289 230 LINE SMOOTH",
"302 230 OFFCURVE",
"311 229 OFFCURVE",
"316 226 CURVE SMOOTH"
);
},
{
closed = 1;
nodes = (
"300 273 OFFCURVE",
"291 271 OFFCURVE",
"277 271 CURVE SMOOTH",
"260 271 LINE",
"260 322 LINE",
"273 322 LINE SMOOTH",
"306 322 OFFCURVE",
"315 317 OFFCURVE",
"315 298 CURVE SMOOTH",
"315 289 OFFCURVE",
"312 281 OFFCURVE",
"305 276 CURVE"
);
},
{
closed = 1;
nodes = (
"446 490 LINE SMOOTH",
"493 490 OFFCURVE",
"530 453 OFFCURVE",
"530 406 CURVE SMOOTH",
"530 95 LINE SMOOTH",
"530 48 OFFCURVE",
"493 10 OFFCURVE",
"446 10 CURVE SMOOTH",
"134 10 LINE SMOOTH",
"87 10 OFFCURVE",
"50 48 OFFCURVE",
"50 95 CURVE SMOOTH",
"50 406 LINE SMOOTH",
"50 453 OFFCURVE",
"87 490 OFFCURVE",
"134 490 CURVE SMOOTH"
);
},
{
closed = 1;
nodes = (
"303 128 LINE SMOOTH",
"359 128 OFFCURVE",
"386 160 OFFCURVE",
"386 200 CURVE SMOOTH",
"386 232 OFFCURVE",
"370 251 OFFCURVE",
"338 258 CURVE",
"338 259 LINE",
"361 266 OFFCURVE",
"372 283 OFFCURVE",
"372 310 CURVE SMOOTH",
"372 343 OFFCURVE",
"345 364 OFFCURVE",
"312 364 CURVE SMOOTH",
"205 364 LINE",
"205 128 LINE"
);
}
);
width = 580;
},
{
associatedMasterId = "A66ED1E1-DD26-4741-8836-9BF3607492E0";
layerId = "22C6CF75-6F2D-48DF-BB7D-4F3D4FE91E3E";
name = "(null) Apr 13 13, 23:51";
paths = (
{
closed = 1;
nodes = (
"155 495 OFFCURVE",
"45 386 OFFCURVE",
"45 248 CURVE SMOOTH",
"45 116 OFFCURVE",
"155 6 OFFCURVE",
"292 6 CURVE SMOOTH",
"425 6 OFFCURVE",
"534 116 OFFCURVE",
"534 248 CURVE SMOOTH",
"534 386 OFFCURVE",
"425 495 OFFCURVE",
"292 495 CURVE SMOOTH"
);
},
{
closed = 1;
nodes = (
"178 47 OFFCURVE",
"87 139 OFFCURVE",
"87 248 CURVE SMOOTH",
"87 362 OFFCURVE",
"178 455 OFFCURVE",
"292 455 CURVE SMOOTH",
"401 455 OFFCURVE",
"494 362 OFFCURVE",
"494 248 CURVE SMOOTH",
"494 139 OFFCURVE",
"401 47 OFFCURVE",
"292 47 CURVE SMOOTH"
);
},
{
closed = 1;
nodes = (
"441 298 OFFCURVE",
"441 298 OFFCURVE",
"441 298 CURVE SMOOTH",
"441 298 OFFCURVE",
"441 302 OFFCURVE",
"441 302 CURVE SMOOTH",
"441 302 OFFCURVE",
"441 302 OFFCURVE",
"441 302 CURVE SMOOTH",
"437 302 OFFCURVE",
"437 302 OFFCURVE",
"437 302 CURVE SMOOTH",
"437 302 OFFCURVE",
"437 302 OFFCURVE",
"437 302 CURVE SMOOTH",
"437 302 OFFCURVE",
"437 302 OFFCURVE",
"437 302 CURVE SMOOTH",
"437 302 OFFCURVE",
"437 302 OFFCURVE",
"437 302 CURVE SMOOTH",
"437 305 OFFCURVE",
"437 305 OFFCURVE",
"437 305 CURVE SMOOTH",
"437 305 OFFCURVE",
"437 305 OFFCURVE",
"437 305 CURVE SMOOTH",
"437 305 OFFCURVE",
"437 305 OFFCURVE",
"437 305 CURVE SMOOTH",
"437 305 OFFCURVE",
"437 305 OFFCURVE",
"437 305 CURVE SMOOTH",
"437 305 OFFCURVE",
"437 305 OFFCURVE",
"433 305 CURVE SMOOTH",
"433 305 OFFCURVE",
"433 305 OFFCURVE",
"433 305 CURVE",
"433 305 OFFCURVE",
"433 305 OFFCURVE",
"433 305 CURVE SMOOTH",
"297 399 LINE SMOOTH",
"292 402 OFFCURVE",
"287 402 OFFCURVE",
"284 399 CURVE SMOOTH",
"147 305 LINE SMOOTH",
"147 305 OFFCURVE",
"147 305 OFFCURVE",
"147 305 CURVE",
"147 305 OFFCURVE",
"147 305 OFFCURVE",
"147 305 CURVE",
"147 305 OFFCURVE",
"147 305 OFFCURVE",
"144 305 CURVE SMOOTH",
"144 305 OFFCURVE",
"144 305 OFFCURVE",
"144 305 CURVE SMOOTH",
"144 305 OFFCURVE",
"144 305 OFFCURVE",
"144 305 CURVE",
"144 305 OFFCURVE",
"144 305 OFFCURVE",
"144 305 CURVE SMOOTH",
"144 305 OFFCURVE",
"144 305 OFFCURVE",
"144 302 CURVE SMOOTH",
"144 302 OFFCURVE",
"144 302 OFFCURVE",
"144 302 CURVE",
"144 302 OFFCURVE",
"144 302 OFFCURVE",
"144 302 CURVE SMOOTH",
"144 302 OFFCURVE",
"144 302 OFFCURVE",
"144 302 CURVE SMOOTH",
"144 302 OFFCURVE",
"144 302 OFFCURVE",
"144 302 CURVE",
"144 302 OFFCURVE",
"144 302 OFFCURVE",
"144 302 CURVE SMOOTH",
"144 302 OFFCURVE",
"138 298 OFFCURVE",
"138 298 CURVE SMOOTH",
"138 298 OFFCURVE",
"138 298 OFFCURVE",
"138 298 CURVE",
"138 298 OFFCURVE",
"138 298 OFFCURVE",
"138 298 CURVE SMOOTH",
"138 204 LINE SMOOTH",
"138 204 OFFCURVE",
"138 204 OFFCURVE",
"138 204 CURVE",
"138 204 OFFCURVE",
"138 204 OFFCURVE",
"138 204 CURVE",
"138 204 OFFCURVE",
"138 200 OFFCURVE",
"144 200 CURVE",
"144 200 OFFCURVE",
"144 200 OFFCURVE",
"144 200 CURVE",
"144 200 OFFCURVE",
"144 200 OFFCURVE",
"144 200 CURVE",
"144 200 OFFCURVE",
"144 200 OFFCURVE",
"144 200 CURVE",
"144 200 OFFCURVE",
"144 200 OFFCURVE",
"144 200 CURVE",
"144 200 OFFCURVE",
"144 200 OFFCURVE",
"144 200 CURVE",
"144 196 OFFCURVE",
"144 196 OFFCURVE",
"144 196 CURVE",
"144 196 OFFCURVE",
"144 196 OFFCURVE",
"144 196 CURVE",
"144 196 OFFCURVE",
"144 196 OFFCURVE",
"144 196 CURVE",
"144 196 OFFCURVE",
"147 196 OFFCURVE",
"147 196 CURVE",
"147 196 OFFCURVE",
"147 196 OFFCURVE",
"147 196 CURVE",
"147 196 OFFCURVE",
"147 196 OFFCURVE",
"147 196 CURVE",
"147 196 OFFCURVE",
"147 196 OFFCURVE",
"147 196 CURVE",
"284 104 LINE",
"284 99 OFFCURVE",
"287 99 OFFCURVE",
"292 99 CURVE",
"292 99 OFFCURVE",
"297 104 OFFCURVE",
"297 104 CURVE SMOOTH",
"433 193 LINE SMOOTH",
"433 193 OFFCURVE",
"433 196 OFFCURVE",
"433 196 CURVE",
"433 196 OFFCURVE",
"433 196 OFFCURVE",
"433 196 CURVE SMOOTH",
"437 196 OFFCURVE",
"437 196 OFFCURVE",
"437 196 CURVE SMOOTH",
"437 196 OFFCURVE",
"437 196 OFFCURVE",
"437 196 CURVE SMOOTH",
"437 196 OFFCURVE",
"437 196 OFFCURVE",
"437 196 CURVE SMOOTH",
"437 196 OFFCURVE",
"437 196 OFFCURVE",
"437 196 CURVE",
"437 196 OFFCURVE",
"437 196 OFFCURVE",
"437 196 CURVE SMOOTH",
"437 196 OFFCURVE",
"437 200 OFFCURVE",
"437 200 CURVE SMOOTH",
"437 200 OFFCURVE",
"437 200 OFFCURVE",
"437 200 CURVE SMOOTH",
"437 200 OFFCURVE",
"437 200 OFFCURVE",
"437 200 CURVE SMOOTH",
"437 200 OFFCURVE",
"441 200 OFFCURVE",
"441 200 CURVE SMOOTH",
"441 200 OFFCURVE",
"441 200 OFFCURVE",
"441 200 CURVE SMOOTH",
"441 200 OFFCURVE",
"441 200 OFFCURVE",
"441 204 CURVE SMOOTH",
"441 204 OFFCURVE",
"441 204 OFFCURVE",
"441 204 CURVE SMOOTH",
"441 204 OFFCURVE",
"441 204 OFFCURVE",
"441 204 CURVE SMOOTH",
"441 298 LINE",
"441 298 OFFCURVE",
"441 298 OFFCURVE",
"441 298 CURVE"
);
},
{
closed = 1;
nodes = (
"405 298 LINE",
"361 265 LINE",
"304 305 LINE",
"304 362 LINE"
);
},
{
closed = 1;
nodes = (
"276 305 LINE",
"223 265 LINE",
"175 298 LINE",
"276 362 LINE"
);
},
{
closed = 1;
nodes = (
"198 248 LINE",
"167 229 LINE",
"167 273 LINE"
);
},
{
closed = 1;
nodes = (
"175 204 LINE",
"223 237 LINE",
"276 196 LINE",
"276 136 LINE"
);
},
{
closed = 1;
nodes = (
"243 248 LINE",
"292 281 LINE",
"337 248 LINE",
"292 220 LINE"
);
},
{
closed = 1;
nodes = (
"304 196 LINE",
"361 237 LINE",
"405 204 LINE",
"304 136 LINE"
);
},
{
closed = 1;
nodes = (
"381 248 LINE",
"413 273 LINE",
"413 229 LINE"
);
}
);
width = 580;
}
);
unicode = F354;
},
{
glyphname = dribbble;
layers = (
{
layerId = "A66ED1E1-DD26-4741-8836-9BF3607492E0";
name = Regular;
paths = (
{
closed = 1;
nodes = (
"249 351 OFFCURVE",
"221 392 OFFCURVE",
"208 412 CURVE",
"201 421 OFFCURVE",
"197 427 OFFCURVE",
"196 428 CURVE",
"141 401 OFFCURVE",
"101 351 OFFCURVE",
"88 291 CURVE",
"149 291 OFFCURVE",
"209 299 OFFCURVE",
"269 315 CURVE"
);
},
{
closed = 1;
nodes = (
"297 250 OFFCURVE",
"299 251 OFFCURVE",
"301 251 CURVE",
"298 260 OFFCURVE",
"292 272 OFFCURVE",
"285 285 CURVE",
"224 266 OFFCURVE",
"157 257 OFFCURVE",
"84 257 CURVE",
"84 250 LINE SMOOTH",
"84 200 OFFCURVE",
"101 156 OFFCURVE",
"134 119 CURVE",
"135 122 OFFCURVE",
"138 125 OFFCURVE",
"141 130 CURVE",
"147 138 OFFCURVE",
"169 168 OFFCURVE",
"192 189 CURVE SMOOTH",
"215 210 OFFCURVE",
"254 236 OFFCURVE",
"294 249 CURVE SMOOTH"
);
},
{
closed = 1;
nodes = (
"159 96 LINE",
"158 96 OFFCURVE",
"156 98 OFFCURVE",
"155 99 CURVE"
);
},
{
closed = 1;
nodes = (
"410 398 LINE",
"372 431 OFFCURVE",
"329 447 OFFCURVE",
"280 447 CURVE SMOOTH",
"264 447 OFFCURVE",
"249 445 OFFCURVE",
"234 441 CURVE",
"261 405 OFFCURVE",
"286 367 OFFCURVE",
"307 327 CURVE",
"353 344 OFFCURVE",
"387 368 OFFCURVE",
"409 397 CURVE"
);
},
{
closed = 1;
nodes = (
"398 43 OFFCURVE",
"343 20 OFFCURVE",
"280 20 CURVE SMOOTH",
"153 20 OFFCURVE",
"50 123 OFFCURVE",
"50 250 CURVE SMOOTH",
"50 377 OFFCURVE",
"153 480 OFFCURVE",
"280 480 CURVE SMOOTH",
"407 480 OFFCURVE",
"510 377 OFFCURVE",
"510 250 CURVE SMOOTH",
"510 187 OFFCURVE",
"488 133 OFFCURVE",
"443 88 CURVE SMOOTH"
);
},
{
closed = 1;
nodes = (
"314 218 LINE",
"242 193 OFFCURVE",
"191 153 OFFCURVE",
"160 97 CURVE",
"159 96 LINE",
"196 68 OFFCURVE",
"236 54 OFFCURVE",
"280 54 CURVE SMOOTH",
"306 54 OFFCURVE",
"332 59 OFFCURVE",
"357 70 CURVE",
"349 117 OFFCURVE",
"335 166 OFFCURVE",
"315 219 CURVE"
);
},
{
closed = 1;
nodes = (
"326 289 OFFCURVE",
"330 280 OFFCURVE",
"335 269 CURVE",
"336 268 OFFCURVE",
"337 267 OFFCURVE",
"338 265 CURVE",
"339 262 OFFCURVE",
"339 260 OFFCURVE",
"340 259 CURVE",
"384 264 OFFCURVE",
"430 260 OFFCURVE",
"455 256 CURVE SMOOTH",
"468 254 OFFCURVE",
"475 253 OFFCURVE",
"476 252 CURVE",
"476 298 OFFCURVE",
"461 339 OFFCURVE",
"432 375 CURVE",
"428 370 LINE",
"423 363 OFFCURVE",
"410 351 OFFCURVE",
"394 339 CURVE",
"378 326 OFFCURVE",
"351 309 OFFCURVE",
"322 297 CURVE"
);
},
{
closed = 1;
nodes = (
"369 179 OFFCURVE",
"382 132 OFFCURVE",
"390 88 CURVE",
"437 119 OFFCURVE",
"465 162 OFFCURVE",
"474 219 CURVE",
"471 220 OFFCURVE",
"465 222 OFFCURVE",
"455 225 CURVE",
"434 229 OFFCURVE",
"392 235 OFFCURVE",
"352 228 CURVE"
);
}
);
width = 560;
}
);
unicode = F31B;
},
{
glyphname = dropbox;
lastChange = "2013-04-16 22:28:14 +0100";
layers = (
{
layerId = "A66ED1E1-DD26-4741-8836-9BF3607492E0";
name = Regular;
paths = (
{
closed = 1;
nodes = (
"193 478 LINE",
"290 399 LINE",
"148 307 LINE",
"50 389 LINE"
);
},
{
closed = 1;
nodes = (
"380 101 OFFCURVE",
"382 101 OFFCURVE",
"383 102 CURVE",
"441 141 LINE",
"441 118 LINE",
"290 23 LINE",
"139 118 LINE",
"139 141 LINE",
"198 102 LINE",
"199 101 OFFCURVE",
"201 101 OFFCURVE",
"204 101 CURVE SMOOTH",
"207 101 OFFCURVE",
"210 102 OFFCURVE",
"211 103 CURVE",
"290 169 LINE",
"370 103 LINE",
"371 102 OFFCURVE",
"374 101 OFFCURVE",
"377 101 CURVE SMOOTH"
);
},
{
closed = 1;
nodes = (
"530 389 LINE",
"433 307 LINE",
"290 399 LINE",
"388 478 LINE"
);
},
{
closed = 1;
nodes = (
"290 218 LINE",
"433 307 LINE",
"520 237 LINE",
"379 145 LINE"
);
},
{
closed = 1;
nodes = (
"202 145 LINE",
"61 237 LINE",
"148 307 LINE",
"290 218 LINE"
);
}
);
width = 580;
}
);
unicode = F330;
},
{
glyphname = evernote;
lastChange = "2013-04-16 22:28:15 +0100";
layers = (
{
layerId = "A66ED1E1-DD26-4741-8836-9BF3607492E0";
name = Regular;
paths = (
{
closed = 1;
nodes = (
"425 392 OFFCURVE",
"426 380 OFFCURVE",
"428 357 CURVE SMOOTH",
"431 311 OFFCURVE",
"435 263 OFFCURVE",
"432 199 CURVE SMOOTH",
"428 135 OFFCURVE",
"421 85 OFFCURVE",
"397 51 CURVE",
"384 34 OFFCURVE",
"369 25 OFFCURVE",
"351 25 CURVE SMOOTH",
"248 25 OFFCURVE",
"240 30 OFFCURVE",
"245 103 CURVE SMOOTH",
"246 130 OFFCURVE",
"275 142 OFFCURVE",
"298 142 CURVE",
"315 141 LINE",
"313 106 LINE",
"309 105 OFFCURVE",
"303 105 OFFCURVE",
"294 105 CURVE SMOOTH",
"281 105 OFFCURVE",
"273 74 OFFCURVE",
"302 71 CURVE",
"345 73 LINE SMOOTH",
"358 74 OFFCURVE",
"362 97 OFFCURVE",
"359 141 CURVE SMOOTH",
"358 152 OFFCURVE",
"345 159 OFFCURVE",
"333 161 CURVE SMOOTH",
"327 162 OFFCURVE",
"319 163 OFFCURVE",
"309 165 CURVE",
"288 168 OFFCURVE",
"274 170 OFFCURVE",
"262 183 CURVE",
"256 190 OFFCURVE",
"252 196 OFFCURVE",
"249 202 CURVE",
"246 207 OFFCURVE",
"244 210 OFFCURVE",
"243 210 CURVE SMOOTH",
"242 210 OFFCURVE",
"241 200 OFFCURVE",
"239 181 CURVE SMOOTH",
"237 162 OFFCURVE",
"232 152 OFFCURVE",
"224 152 CURVE SMOOTH",
"195 152 OFFCURVE",
"110 164 OFFCURVE",
"97 177 CURVE SMOOTH",
"74 200 OFFCURVE",
"52 303 OFFCURVE",
"52 327 CURVE SMOOTH",
"52 338 OFFCURVE",
"62 343 OFFCURVE",
"81 342 CURVE",
"139 342 LINE SMOOTH",
"165 342 OFFCURVE",
"178 354 OFFCURVE",
"178 378 CURVE SMOOTH",
"178 382 OFFCURVE",
"178 391 OFFCURVE",
"178 404 CURVE",
"177 417 OFFCURVE",
"177 427 OFFCURVE",
"177 434 CURVE SMOOTH",
"177 461 OFFCURVE",
"184 475 OFFCURVE",
"197 475 CURVE SMOOTH",
"227 475 OFFCURVE",
"247 473 OFFCURVE",
"257 468 CURVE",
"269 463 OFFCURVE",
"277 449 OFFCURVE",
"278 438 CURVE",
"280 431 LINE",
"381 425 LINE",
"388 425 OFFCURVE",
"397 425 OFFCURVE",
"413 414 CURVE",
"421 409 OFFCURVE",
"425 402 OFFCURVE",
"425 393 CURVE SMOOTH"
);
},
{
closed = 1;
nodes = (
"379 244 OFFCURVE",
"379 249 OFFCURVE",
"376 258 CURVE",
"371 275 OFFCURVE",
"356 297 OFFCURVE",
"337 297 CURVE SMOOTH",
"318 297 OFFCURVE",
"307 278 OFFCURVE",
"304 263 CURVE",
"303 255 OFFCURVE",
"303 250 OFFCURVE",
"304 248 CURVE",
"309 244 OFFCURVE",
"312 245 OFFCURVE",
"325 248 CURVE",
"331 249 OFFCURVE",
"336 250 OFFCURVE",
"340 250 CURVE SMOOTH",
"349 250 OFFCURVE",
"362 245 OFFCURVE",
"370 242 CURVE",
"373 241 OFFCURVE",
"376 241 OFFCURVE",
"377 242 CURVE SMOOTH"
);
},
{
closed = 1;
nodes = (
"136 389 OFFCURVE",
"131 385 OFFCURVE",
"122 385 CURVE SMOOTH",
"50 385 LINE",
"138 471 LINE",
"137 425 OFFCURVE",
"136 400 OFFCURVE",
"136 396 CURVE SMOOTH"
);
}
);
width = 483;
}
);
unicode = F333;
},
{
glyphname = facebook;
layers = (
{
layerId = "A66ED1E1-DD26-4741-8836-9BF3607492E0";
name = Regular;
paths = (
{
closed = 1;
nodes = (
"300 397 LINE",
"229 397 LINE SMOOTH",
"220 397 OFFCURVE",
"211 386 OFFCURVE",
"211 371 CURVE SMOOTH",
"211 320 LINE",
"300 320 LINE",
"300 246 LINE",
"211 246 LINE",
"211 25 LINE",
"126 25 LINE",
"126 246 LINE",
"50 246 LINE",
"50 320 LINE",
"126 320 LINE",
"126 363 LINE SMOOTH",
"126 426 OFFCURVE",
"170 475 OFFCURVE",
"229 475 CURVE SMOOTH",
"300 475 LINE"
);
}
);
width = 350;
}
);
unicode = F30C;
},
{
glyphname = flattr;
lastChange = "2013-04-16 22:28:16 +0100";
layers = (
{
layerId = "A66ED1E1-DD26-4741-8836-9BF3607492E0";
name = Regular;
paths = (
{
closed = 1;
nodes = (
"140 182 LINE",
"50 92 LINE",
"50 299 LINE SMOOTH",
"50 400 OFFCURVE",
"96 450 OFFCURVE",
"189 450 CURVE SMOOTH",
"305 450 LINE",
"410 450 LINE",
"254 295 LINE SMOOTH",
"252 293 OFFCURVE",
"250 292 OFFCURVE",
"249 292 CURVE SMOOTH",
"246 292 OFFCURVE",
"244 294 OFFCURVE",
"243 297 CURVE",
"243 299 LINE",
"243 361 LINE",
"178 361 OFFCURVE",
"140 374 OFFCURVE",
"140 287 CURVE SMOOTH"
);
},
{
closed = 1;
nodes = (
"360 319 LINE",
"450 409 LINE",
"450 202 LINE SMOOTH",
"450 101 OFFCURVE",
"404 50 OFFCURVE",
"311 50 CURVE SMOOTH",
"195 50 LINE",
"91 50 LINE",
"247 206 LINE",
"248 208 OFFCURVE",
"249 209 OFFCURVE",
"251 209 CURVE SMOOTH",
"254 209 OFFCURVE",
"256 207 OFFCURVE",
"257 204 CURVE",
"257 202 LINE",
"257 140 LINE",
"322 140 OFFCURVE",
"360 127 OFFCURVE",
"360 214 CURVE SMOOTH"
);
}
);
width = 500;
}
);
unicode = F336;
},
{
glyphname = flickr;
lastChange = "2013-04-16 22:28:16 +0100";
layers = (
{
layerId = "A66ED1E1-DD26-4741-8836-9BF3607492E0";
name = Regular;
paths = (
{
closed = 1;
nodes = (
"198 160 OFFCURVE",
"175 150 OFFCURVE",
"148 150 CURVE SMOOTH",
"95 150 OFFCURVE",
"50 195 OFFCURVE",
"50 250 CURVE SMOOTH",
"50 306 OFFCURVE",
"93 350 OFFCURVE",
"148 350 CURVE SMOOTH",
"203 350 OFFCURVE",
"246 306 OFFCURVE",
"246 250 CURVE SMOOTH",
"246 223 OFFCURVE",
"236 199 OFFCURVE",
"217 180 CURVE SMOOTH"
);
},
{
closed = 1;
nodes = (
"452 160 OFFCURVE",
"429 150 OFFCURVE",
"402 150 CURVE SMOOTH",
"349 150 OFFCURVE",
"304 195 OFFCURVE",
"304 250 CURVE SMOOTH",
"304 306 OFFCURVE",
"347 350 OFFCURVE",
"402 350 CURVE SMOOTH",
"457 350 OFFCURVE",
"500 306 OFFCURVE",
"500 250 CURVE SMOOTH",
"500 223 OFFCURVE",
"490 199 OFFCURVE",
"471 180 CURVE SMOOTH"
);
}
);
width = 550;
}
);
unicode = F303;
},
{
glyphname = github;
lastChange = "2013-04-16 21:08:48 +0100";
layers = (
{
layerId = "A66ED1E1-DD26-4741-8836-9BF3607492E0";
name = Regular;
paths = (
{
closed = 1;
nodes = (
"154 484 OFFCURVE",
"51 381 OFFCURVE",
"51 254 CURVE SMOOTH",
"51 152 OFFCURVE",
"117 66 OFFCURVE",
"208 36 CURVE",
"219 34 OFFCURVE",
"224 41 OFFCURVE",
"224 47 CURVE SMOOTH",
"224 52 OFFCURVE",
"223 70 OFFCURVE",
"223 90 CURVE",
"159 76 OFFCURVE",
"146 117 OFFCURVE",
"146 117 CURVE",
"135 143 OFFCURVE",
"120 150 OFFCURVE",
"120 150 CURVE",
"99 165 OFFCURVE",
"122 164 OFFCURVE",
"122 164 CURVE",
"145 163 OFFCURVE",
"157 141 OFFCURVE",
"157 141 CURVE",
"178 106 OFFCURVE",
"211 116 OFFCURVE",
"224 122 CURVE",
"226 136 OFFCURVE",
"232 147 OFFCURVE",
"239 152 CURVE",
"188 158 OFFCURVE",
"134 178 OFFCURVE",
"134 266 CURVE SMOOTH",
"134 291 OFFCURVE",
"143 312 OFFCURVE",
"158 328 CURVE",
"155 334 OFFCURVE",
"147 357 OFFCURVE",
"160 389 CURVE",
"160 389 OFFCURVE",
"179 395 OFFCURVE",
"223 365 CURVE",
"241 370 OFFCURVE",
"261 373 OFFCURVE",
"281 373 CURVE SMOOTH",
"300 373 OFFCURVE",
"320 370 OFFCURVE",
"338 365 CURVE",
"382 395 OFFCURVE",
"401 389 OFFCURVE",
"401 389 CURVE",
"414 357 OFFCURVE",
"406 334 OFFCURVE",
"404 328 CURVE",
"418 312 OFFCURVE",
"427 291 OFFCURVE",
"427 266 CURVE SMOOTH",
"427 178 OFFCURVE",
"374 158 OFFCURVE",
"322 153 CURVE",
"331 145 OFFCURVE",
"338 131 OFFCURVE",
"338 110 CURVE SMOOTH",
"338 79 OFFCURVE",
"338 54 OFFCURVE",
"338 47 CURVE SMOOTH",
"338 41 OFFCURVE",
"342 34 OFFCURVE",
"353 36 CURVE",
"445 66 OFFCURVE",
"511 152 OFFCURVE",
"511 254 CURVE SMOOTH",
"511 381 OFFCURVE",
"408 484 OFFCURVE",
"281 484 CURVE SMOOTH"
);
},
{
closed = 1;
nodes = (
"137 153 OFFCURVE",
"135 152 OFFCURVE",
"134 153 CURVE SMOOTH",
"132 154 OFFCURVE",
"131 155 OFFCURVE",
"132 157 CURVE",
"132 158 OFFCURVE",
"134 158 OFFCURVE",
"136 157 CURVE SMOOTH",
"137 156 OFFCURVE",
"138 155 OFFCURVE",
"138 154 CURVE"
);
},
{
closed = 1;
nodes = (
"146 142 OFFCURVE",
"144 143 OFFCURVE",
"142 144 CURVE SMOOTH",
"141 146 OFFCURVE",
"141 148 OFFCURVE",
"142 149 CURVE SMOOTH",
"143 150 OFFCURVE",
"145 150 OFFCURVE",
"146 148 CURVE SMOOTH",
"148 147 OFFCURVE",
"148 144 OFFCURVE",
"147 143 CURVE SMOOTH"
);
},
{
closed = 1;
nodes = (
"155 129 OFFCURVE",
"152 130 OFFCURVE",
"151 132 CURVE SMOOTH",
"150 134 OFFCURVE",
"150 137 OFFCURVE",
"151 138 CURVE SMOOTH",
"152 139 OFFCURVE",
"155 138 OFFCURVE",
"156 136 CURVE SMOOTH",
"158 134 OFFCURVE",
"158 131 OFFCURVE",
"156 130 CURVE SMOOTH"
);
},
{
closed = 1;
nodes = (
"167 116 OFFCURVE",
"165 116 OFFCURVE",
"163 118 CURVE SMOOTH",
"161 120 OFFCURVE",
"160 123 OFFCURVE",
"161 124 CURVE SMOOTH",
"163 125 OFFCURVE",
"165 125 OFFCURVE",
"167 123 CURVE SMOOTH",
"169 121 OFFCURVE",
"170 119 OFFCURVE",
"169 117 CURVE"
);
},
{
closed = 1;
nodes = (
"185 108 OFFCURVE",
"183 107 OFFCURVE",
"180 108 CURVE SMOOTH",
"177 109 OFFCURVE",
"176 111 OFFCURVE",
"176 113 CURVE SMOOTH",
"177 115 OFFCURVE",
"179 115 OFFCURVE",
"182 115 CURVE SMOOTH",
"185 114 OFFCURVE",
"186 112 OFFCURVE",
"186 110 CURVE SMOOTH"
);
},
{
closed = 1;
nodes = (
"205 107 OFFCURVE",
"202 105 OFFCURVE",
"200 105 CURVE SMOOTH",
"197 105 OFFCURVE",
"195 106 OFFCURVE",
"195 108 CURVE",
"195 110 OFFCURVE",
"197 112 OFFCURVE",
"200 112 CURVE SMOOTH",
"202 112 OFFCURVE",
"204 110 OFFCURVE",
"204 109 CURVE SMOOTH"
);
},
{
closed = 1;
nodes = (
"222 110 OFFCURVE",
"220 108 OFFCURVE",
"218 107 CURVE SMOOTH",
"215 107 OFFCURVE",
"213 108 OFFCURVE",
"212 110 CURVE SMOOTH",
"212 112 OFFCURVE",
"214 114 OFFCURVE",
"217 114 CURVE SMOOTH",
"219 114 OFFCURVE",
"222 113 OFFCURVE",
"222 111 CURVE SMOOTH"
);
}
);
width = 560;
},
{
associatedMasterId = "A66ED1E1-DD26-4741-8836-9BF3607492E0";
layerId = "7A87A345-F430-4C98-93CE-C85DF6DF10A9";
name = "Regular Apr 16 13, 21:07";
paths = (
{
closed = 1;
nodes = (
"377 218 OFFCURVE",
"392 198 OFFCURVE",
"392 173 CURVE SMOOTH",
"392 148 OFFCURVE",
"377 128 OFFCURVE",
"360 128 CURVE SMOOTH",
"341 128 OFFCURVE",
"327 148 OFFCURVE",
"327 173 CURVE SMOOTH",
"327 198 OFFCURVE",
"341 218 OFFCURVE",
"360 218 CURVE SMOOTH"
);
},
{
closed = 1;
nodes = (
"498 308 OFFCURVE",
"510 276 OFFCURVE",
"510 238 CURVE SMOOTH",
"510 189 OFFCURVE",
"497 148 OFFCURVE",
"480 124 CURVE SMOOTH",
"463 99 OFFCURVE",
"434 79 OFFCURVE",
"413 71 CURVE",
"392 62 OFFCURVE",
"360 57 OFFCURVE",
"346 57 CURVE",
"339 56 OFFCURVE",
"331 56 OFFCURVE",
"323 56 CURVE SMOOTH",
"321 56 OFFCURVE",
"315 56 OFFCURVE",
"305 56 CURVE",
"295 55 OFFCURVE",
"287 55 OFFCURVE",
"280 55 CURVE SMOOTH",
"273 55 OFFCURVE",
"265 55 OFFCURVE",
"255 56 CURVE",
"245 56 OFFCURVE",
"239 56 OFFCURVE",
"237 56 CURVE SMOOTH",
"221 56 OFFCURVE",
"211 56 OFFCURVE",
"184 61 CURVE",
"156 65 OFFCURVE",
"137 72 OFFCURVE",
"112 91 CURVE SMOOTH",
"87 110 OFFCURVE",
"70 132 OFFCURVE",
"59 172 CURVE",
"53 191 OFFCURVE",
"50 213 OFFCURVE",
"50 238 CURVE SMOOTH",
"50 276 OFFCURVE",
"62 308 OFFCURVE",
"87 335 CURVE",
"84 336 OFFCURVE",
"84 350 OFFCURVE",
"87 375 CURVE",
"89 400 OFFCURVE",
"94 424 OFFCURVE",
"103 445 CURVE",
"134 442 OFFCURVE",
"172 424 OFFCURVE",
"217 393 CURVE",
"232 397 OFFCURVE",
"253 399 OFFCURVE",
"280 399 CURVE SMOOTH",
"308 399 OFFCURVE",
"329 397 OFFCURVE",
"343 393 CURVE",
"384 421 OFFCURVE",
"427 439 OFFCURVE",
"444 442 CURVE",
"457 445 LINE",
"466 424 OFFCURVE",
"471 400 OFFCURVE",
"474 375 CURVE",
"476 350 OFFCURVE",
"476 336 OFFCURVE",
"473 335 CURVE"
);
},
{
closed = 1;
nodes = (
"281 78 LINE SMOOTH",
"392 78 OFFCURVE",
"449 97 OFFCURVE",
"449 180 CURVE SMOOTH",
"449 204 OFFCURVE",
"440 224 OFFCURVE",
"422 240 CURVE SMOOTH",
"403 257 OFFCURVE",
"384 260 OFFCURVE",
"333 256 CURVE SMOOTH",
"308 254 OFFCURVE",
"290 253 OFFCURVE",
"281 253 CURVE SMOOTH",
"280 253 LINE",
"279 253 LINE SMOOTH",
"268 253 OFFCURVE",
"255 254 OFFCURVE",
"238 255 CURVE SMOOTH",
"204 258 OFFCURVE",
"189 259 OFFCURVE",
"166 254 CURVE",
"155 251 OFFCURVE",
"145 247 OFFCURVE",
"138 240 CURVE",
"121 225 OFFCURVE",
"112 205 OFFCURVE",
"112 180 CURVE SMOOTH",
"112 97 OFFCURVE",
"168 78 OFFCURVE",
"279 78 CURVE SMOOTH"
);
},
{
closed = 1;
nodes = (
"218 218 OFFCURVE",
"233 198 OFFCURVE",
"233 173 CURVE SMOOTH",
"233 148 OFFCURVE",
"218 128 OFFCURVE",
"201 128 CURVE SMOOTH",
"182 128 OFFCURVE",
"168 148 OFFCURVE",
"168 173 CURVE SMOOTH",
"168 198 OFFCURVE",
"182 218 OFFCURVE",
"201 218 CURVE SMOOTH"
);
}
);
width = 560;
}
);
unicode = F300;
},
{
glyphname = "google+";
layers = (
{
layerId = "A66ED1E1-DD26-4741-8836-9BF3607492E0";
name = Regular;
paths = (
{
closed = 1;
nodes = (
"74 400 OFFCURVE",
"94 431 OFFCURVE",
"115 445 CURVE SMOOTH",
"135 459 OFFCURVE",
"165 468 OFFCURVE",
"177 469 CURVE",
"183 470 OFFCURVE",
"187 470 OFFCURVE",
"190 470 CURVE SMOOTH",
"305 470 LINE",
"305 468 LINE SMOOTH",
"305 461 OFFCURVE",
"292 455 OFFCURVE",
"266 450 CURVE",
"257 450 OFFCURVE",
"250 449 OFFCURVE",
"247 447 CURVE",
"274 434 OFFCURVE",
"281 411 OFFCURVE",
"281 371 CURVE SMOOTH",
"281 337 OFFCURVE",
"270 311 OFFCURVE",
"247 292 CURVE",
"234 279 OFFCURVE",
"228 270 OFFCURVE",
"228 265 CURVE SMOOTH",
"228 259 OFFCURVE",
"236 248 OFFCURVE",
"253 233 CURVE SMOOTH",
"288 203 OFFCURVE",
"305 173 OFFCURVE",
"305 144 CURVE SMOOTH",
"305 51 OFFCURVE",
"227 30 OFFCURVE",
"172 30 CURVE SMOOTH",
"171 30 OFFCURVE",
"171 30 OFFCURVE",
"170 30 CURVE",
"168 31 LINE",
"167 30 OFFCURVE",
"167 30 OFFCURVE",
"166 30 CURVE SMOOTH",
"150 30 OFFCURVE",
"132 32 OFFCURVE",
"102 43 CURVE SMOOTH",
"72 54 OFFCURVE",
"50 82 OFFCURVE",
"50 123 CURVE SMOOTH",
"50 163 OFFCURVE",
"74 191 OFFCURVE",
"108 202 CURVE SMOOTH",
"142 213 OFFCURVE",
"164 216 OFFCURVE",
"187 216 CURVE SMOOTH",
"188 216 LINE",
"177 231 OFFCURVE",
"172 250 OFFCURVE",
"172 259 CURVE",
"173 266 LINE",
"166 266 LINE SMOOTH",
"123 266 OFFCURVE",
"74 284 OFFCURVE",
"74 361 CURVE SMOOTH"
);
},
{
closed = 1;
nodes = (
"268 115 OFFCURVE",
"264 156 OFFCURVE",
"238 177 CURVE SMOOTH",
"225 188 OFFCURVE",
"207 193 OFFCURVE",
"186 193 CURVE SMOOTH",
"178 193 LINE SMOOTH",
"135 192 OFFCURVE",
"97 158 OFFCURVE",
"100 123 CURVE SMOOTH",
"103 88 OFFCURVE",
"139 68 OFFCURVE",
"186 71 CURVE SMOOTH",
"209 72 OFFCURVE",
"227 79 OFFCURVE",
"241 91 CURVE SMOOTH"
);
},
{
closed = 1;
nodes = (
"219 421 OFFCURVE",
"199 439 OFFCURVE",
"168 439 CURVE SMOOTH",
"164 439 OFFCURVE",
"161 439 OFFCURVE",
"158 438 CURVE SMOOTH",
"131 430 OFFCURVE",
"119 391 OFFCURVE",
"128 354 CURVE SMOOTH",
"137 319 OFFCURVE",
"162 295 OFFCURVE",
"187 295 CURVE SMOOTH",
"191 295 OFFCURVE",
"194 295 OFFCURVE",
"196 296 CURVE",
"224 304 OFFCURVE",
"241 345 OFFCURVE",
"229 385 CURVE SMOOTH"
);
},
{
closed = 1;
nodes = (
"423 298 LINE",
"498 298 LINE",
"498 251 LINE",
"423 251 LINE",
"423 176 LINE",
"376 176 LINE",
"376 251 LINE",
"301 251 LINE",
"301 298 LINE",
"376 298 LINE",
"376 373 LINE",
"423 373 LINE"
);
}
);
width = 548;
}
);
unicode = F30F;
},
{
glyphname = "google-circles";
lastChange = "2013-04-16 22:28:38 +0100";
layers = (
{
layerId = "A66ED1E1-DD26-4741-8836-9BF3607492E0";
name = Regular;
paths = (
{
closed = 1;
nodes = (
"429 480 OFFCURVE",
"510 399 OFFCURVE",
"510 299 CURVE SMOOTH",
"510 204 OFFCURVE",
"437 125 OFFCURVE",
"344 118 CURVE",
"321 61 OFFCURVE",
"265 20 OFFCURVE",
"202 20 CURVE SMOOTH",
"118 20 OFFCURVE",
"50 89 OFFCURVE",
"50 172 CURVE SMOOTH",
"50 236 OFFCURVE",
"90 291 OFFCURVE",
"147 314 CURVE",
"155 407 OFFCURVE",
"233 480 OFFCURVE",
"328 480 CURVE SMOOTH"
);
},
{
closed = 1;
nodes = (
"241 71 OFFCURVE",
"270 88 OFFCURVE",
"289 121 CURVE",
"220 136 OFFCURVE",
"166 190 OFFCURVE",
"151 259 CURVE",
"118 240 OFFCURVE",
"101 211 OFFCURVE",
"101 172 CURVE SMOOTH",
"101 116 OFFCURVE",
"146 71 OFFCURVE",
"202 71 CURVE SMOOTH"
);
},
{
closed = 1;
nodes = (
"215 222 OFFCURVE",
"254 185 OFFCURVE",
"303 174 CURVE",
"302 227 OFFCURVE",
"257 272 OFFCURVE",
"204 273 CURVE"
);
},
{
closed = 1;
nodes = (
"413 186 OFFCURVE",
"455 238 OFFCURVE",
"455 299 CURVE SMOOTH",
"455 370 OFFCURVE",
"397 426 OFFCURVE",
"328 426 CURVE SMOOTH",
"268 426 OFFCURVE",
"215 383 OFFCURVE",
"204 324 CURVE",
"287 323 OFFCURVE",
"353 257 OFFCURVE",
"354 174 CURVE"
);
},
{
closed = 1;
nodes = (
"74 373 OFFCURVE",
"50 396 OFFCURVE",
"50 424 CURVE SMOOTH",
"50 453 OFFCURVE",
"74 476 OFFCURVE",
"102 476 CURVE SMOOTH",
"131 476 OFFCURVE",
"154 453 OFFCURVE",
"154 424 CURVE SMOOTH",
"154 396 OFFCURVE",
"131 373 OFFCURVE",
"102 373 CURVE SMOOTH"
);
},
{
closed = 1;
nodes = (
"117 450 OFFCURVE",
"110 453 OFFCURVE",
"102 453 CURVE SMOOTH",
"86 453 OFFCURVE",
"74 440 OFFCURVE",
"74 424 CURVE SMOOTH",
"74 409 OFFCURVE",
"86 396 OFFCURVE",
"102 396 CURVE SMOOTH",
"118 396 OFFCURVE",
"131 409 OFFCURVE",
"131 424 CURVE SMOOTH",
"131 432 OFFCURVE",
"128 439 OFFCURVE",
"123 445 CURVE"
);
}
);
width = 560;
}
);
unicode = F351;
},
{
glyphname = instagram;
layers = (
{
layerId = "A66ED1E1-DD26-4741-8836-9BF3607492E0";
name = Regular;
paths = (
{
closed = 1;
nodes = (
"395 259 OFFCURVE",
"394 267 OFFCURVE",
"392 275 CURVE",
"480 275 LINE",
"480 103 LINE SMOOTH",
"480 66 OFFCURVE",
"450 35 OFFCURVE",
"413 35 CURVE SMOOTH",
"117 35 LINE SMOOTH",
"80 35 OFFCURVE",
"50 66 OFFCURVE",
"50 103 CURVE SMOOTH",
"50 275 LINE",
"137 275 LINE",
"136 264 OFFCURVE",
"135 256 OFFCURVE",
"135 250 CURVE SMOOTH",
"135 179 OFFCURVE",
"193 120 OFFCURVE",
"265 120 CURVE SMOOTH",
"336 120 OFFCURVE",
"395 179 OFFCURVE",
"395 250 CURVE SMOOTH"
);
},
{
closed = 1;
nodes = (
"413 465 LINE SMOOTH",
"450 465 OFFCURVE",
"480 435 OFFCURVE",
"480 398 CURVE SMOOTH",
"480 325 LINE",
"371 325 LINE",
"345 362 OFFCURVE",
"310 380 OFFCURVE",
"265 380 CURVE SMOOTH",
"219 380 OFFCURVE",
"184 362 OFFCURVE",
"159 325 CURVE",
"50 325 LINE",
"50 398 LINE SMOOTH",
"50 435 OFFCURVE",
"80 465 OFFCURVE",
"117 465 CURVE SMOOTH"
);
},
{
closed = 1;
nodes = (
"445 418 LINE SMOOTH",
"445 426 OFFCURVE",
"441 430 OFFCURVE",
"433 430 CURVE SMOOTH",
"397 430 LINE SMOOTH",
"389 430 OFFCURVE",
"385 426 OFFCURVE",
"385 418 CURVE SMOOTH",
"385 382 LINE SMOOTH",
"385 377 OFFCURVE",
"390 370 OFFCURVE",
"397 370 CURVE SMOOTH",
"433 370 LINE SMOOTH",
"441 370 OFFCURVE",
"445 374 OFFCURVE",
"445 382 CURVE SMOOTH"
);
},
{
closed = 1;
nodes = (
"345 206 OFFCURVE",
"309 170 OFFCURVE",
"265 170 CURVE SMOOTH",
"221 170 OFFCURVE",
"185 206 OFFCURVE",
"185 250 CURVE SMOOTH",
"185 295 OFFCURVE",
"221 330 OFFCURVE",
"265 330 CURVE SMOOTH",
"309 330 OFFCURVE",
"345 295 OFFCURVE",
"345 250 CURVE SMOOTH"
);
}
);
width = 530;
}
);
unicode = F32D;
},
{
glyphname = lastfm;
layers = (
{
layerId = "A66ED1E1-DD26-4741-8836-9BF3607492E0";
name = Regular;
paths = (
{
closed = 1;
nodes = (
"264 136 LINE",
"243 119 OFFCURVE",
"215 110 OFFCURVE",
"180 110 CURVE SMOOTH",
"109 110 OFFCURVE",
"50 162 OFFCURVE",
"50 246 CURVE SMOOTH",
"50 333 OFFCURVE",
"112 390 OFFCURVE",
"184 390 CURVE SMOOTH",
"259 390 OFFCURVE",
"289 364 OFFCURVE",
"313 288 CURVE SMOOTH",
"331 230 LINE SMOOTH",
"347 181 OFFCURVE",
"381 157 OFFCURVE",
"432 157 CURVE SMOOTH",
"472 157 OFFCURVE",
"492 167 OFFCURVE",
"492 187 CURVE SMOOTH",
"492 205 OFFCURVE",
"479 217 OFFCURVE",
"453 223 CURVE SMOOTH",
"414 232 LINE SMOOTH",
"369 243 OFFCURVE",
"347 269 OFFCURVE",
"347 308 CURVE SMOOTH",
"347 367 OFFCURVE",
"390 390 OFFCURVE",
"449 390 CURVE SMOOTH",
"510 390 OFFCURVE",
"543 366 OFFCURVE",
"548 317 CURVE",
"491 310 LINE",
"488 333 OFFCURVE",
"473 345 OFFCURVE",
"446 345 CURVE SMOOTH",
"419 345 OFFCURVE",
"405 335 OFFCURVE",
"405 314 CURVE SMOOTH",
"405 297 OFFCURVE",
"416 286 OFFCURVE",
"438 281 CURVE SMOOTH",
"475 273 LINE SMOOTH",
"525 261 OFFCURVE",
"550 233 OFFCURVE",
"550 190 CURVE SMOOTH",
"550 137 OFFCURVE",
"510 110 OFFCURVE",
"431 110 CURVE SMOOTH",
"340 110 OFFCURVE",
"300 147 OFFCURVE",
"279 211 CURVE SMOOTH",
"261 269 LINE SMOOTH",
"252 296 OFFCURVE",
"249 305 OFFCURVE",
"238 321 CURVE",
"226 336 OFFCURVE",
"210 342 OFFCURVE",
"186 342 CURVE SMOOTH",
"143 342 OFFCURVE",
"105 312 OFFCURVE",
"105 248 CURVE SMOOTH",
"105 195 OFFCURVE",
"140 158 OFFCURVE",
"183 158 CURVE SMOOTH",
"203 158 OFFCURVE",
"224 167 OFFCURVE",
"247 186 CURVE"
);
}
);
width = 600;
}
);
unicode = F321;
},
{
glyphname = linkedin;
layers = (
{
layerId = "A66ED1E1-DD26-4741-8836-9BF3607492E0";
name = Regular;
paths = (
{
closed = 1;
nodes = (
"152 397 OFFCURVE",
"131 376 OFFCURVE",
"100 376 CURVE SMOOTH",
"71 376 OFFCURVE",
"50 397 OFFCURVE",
"50 424 CURVE SMOOTH",
"50 452 OFFCURVE",
"70 472 OFFCURVE",
"101 472 CURVE SMOOTH",
"132 472 OFFCURVE",
"151 452 OFFCURVE",
"152 424 CURVE"
);
},
{
closed = 1;
nodes = (
"53 29 LINE",
"53 338 LINE",
"149 338 LINE",
"149 29 LINE"
);
},
{
closed = 1;
nodes = (
"206 239 LINE SMOOTH",
"206 268 OFFCURVE",
"205 301 OFFCURVE",
"204 338 CURVE",
"287 338 LINE",
"292 295 LINE",
"294 295 LINE",
"314 328 OFFCURVE",
"346 345 OFFCURVE",
"389 345 CURVE SMOOTH",
"456 345 OFFCURVE",
"500 300 OFFCURVE",
"500 212 CURVE SMOOTH",
"500 29 LINE",
"404 29 LINE",
"404 200 LINE SMOOTH",
"404 245 OFFCURVE",
"388 267 OFFCURVE",
"355 267 CURVE SMOOTH",
"332 267 OFFCURVE",
"315 255 OFFCURVE",
"306 231 CURVE",
"304 227 OFFCURVE",
"303 219 OFFCURVE",
"303 207 CURVE SMOOTH",
"303 29 LINE",
"206 29 LINE"
);
}
);
width = 550;
}
);
unicode = F318;
},
{
glyphname = paper;
lastChange = "2013-04-17 21:58:21 +0100";
layers = (
{
layerId = "A66ED1E1-DD26-4741-8836-9BF3607492E0";
name = Regular;
paths = (
{
closed = 1;
nodes = (
"400 475 LINE SMOOTH",
"428 475 OFFCURVE",
"450 453 OFFCURVE",
"450 425 CURVE SMOOTH",
"450 75 LINE SMOOTH",
"450 48 OFFCURVE",
"428 25 OFFCURVE",
"400 25 CURVE SMOOTH",
"100 25 LINE SMOOTH",
"73 25 OFFCURVE",
"50 48 OFFCURVE",
"50 75 CURVE SMOOTH",
"50 425 LINE SMOOTH",
"50 453 OFFCURVE",
"73 475 OFFCURVE",
"100 475 CURVE SMOOTH"
);
},
{
closed = 1;
nodes = (
"400 75 LINE",
"400 425 LINE",
"100 425 LINE",
"100 75 LINE"
);
},
{
closed = 1;
nodes = (
"275 200 LINE",
"275 175 LINE",
"150 175 LINE",
"150 200 LINE"
);
},
{
closed = 1;
nodes = (
"350 300 LINE",
"350 275 LINE",
"250 275 LINE",
"250 300 LINE"
);
},
{
closed = 1;
nodes = (
"250 325 LINE",
"250 375 LINE",
"350 375 LINE",
"350 325 LINE"
);
},
{
closed = 1;
nodes = (
"225 375 LINE",
"225 275 LINE",
"150 275 LINE",
"150 375 LINE"
);
},
{
closed = 1;
nodes = (
"200 250 LINE",
"200 225 LINE",
"150 225 LINE",
"150 250 LINE"
);
},
{
closed = 1;
nodes = (
"225 225 LINE",
"225 250 LINE",
"350 250 LINE",
"350 225 LINE"
);
},
{
closed = 1;
nodes = (
"350 150 LINE",
"350 125 LINE",
"150 125 LINE",
"150 150 LINE"
);
},
{
closed = 1;
nodes = (
"300 175 LINE",
"300 200 LINE",
"350 200 LINE",
"350 175 LINE"
);
}
);
width = 500;
}
);
unicode = E721;
},
{
glyphname = pinboard;
lastChange = "2013-04-17 21:55:47 +0100";
layers = (
{
layerId = "A66ED1E1-DD26-4741-8836-9BF3607492E0";
name = Regular;
paths = (
{
closed = 1;
nodes = (
"173 488 LINE SMOOTH",
"177 492 OFFCURVE",
"183 489 OFFCURVE",
"182 484 CURVE SMOOTH",
"173 441 LINE SMOOTH",
"173 440 OFFCURVE",
"173 439 OFFCURVE",
"174 438 CURVE SMOOTH",
"328 307 LINE SMOOTH",
"329 306 OFFCURVE",
"330 306 OFFCURVE",
"330 306 CURVE SMOOTH",
"378 322 LINE SMOOTH",
"384 324 OFFCURVE",
"388 317 OFFCURVE",
"384 313 CURVE SMOOTH",
"331 260 LINE SMOOTH",
"330 259 OFFCURVE",
"330 257 OFFCURVE",
"331 256 CURVE SMOOTH",
"483 73 LINE SMOOTH",
"488 67 OFFCURVE",
"481 61 OFFCURVE",
"476 65 CURVE SMOOTH",
"282 208 LINE SMOOTH",
"281 209 OFFCURVE",
"279 209 OFFCURVE",
"278 208 CURVE SMOOTH",
"226 155 LINE SMOOTH",
"223 151 OFFCURVE",
"215 156 OFFCURVE",
"217 161 CURVE SMOOTH",
"233 209 LINE SMOOTH",
"233 209 OFFCURVE",
"233 210 OFFCURVE",
"232 211 CURVE SMOOTH",
"101 366 LINE SMOOTH",
"100 367 OFFCURVE",
"99 367 OFFCURVE",
"98 367 CURVE SMOOTH",
"56 358 LINE SMOOTH",
"51 357 OFFCURVE",
"48 363 OFFCURVE",
"52 367 CURVE SMOOTH"
);
}
);
width = 570;
},
{
associatedMasterId = "A66ED1E1-DD26-4741-8836-9BF3607492E0";
layerId = "F520D26D-EA9D-4F74-B563-5E60ECC46D9B";
name = "(null) Apr 13 13, 20:55";
paths = (
{
closed = 1;
nodes = (
"477 230 OFFCURVE",
"361 108 OFFCURVE",
"290 60 CURVE SMOOTH",
"262 41 OFFCURVE",
"235 53 OFFCURVE",
"217 71 CURVE SMOOTH",
"208 80 OFFCURVE",
"200 90 OFFCURVE",
"195 101 CURVE SMOOTH",
"190 112 OFFCURVE",
"177 152 OFFCURVE",
"156 221 CURVE SMOOTH",
"135 290 OFFCURVE",
"123 327 OFFCURVE",
"119 332 CURVE",
"108 340 OFFCURVE",
"93 333 OFFCURVE",
"78 324 CURVE",
"68 317 LINE",
"50 342 LINE",
"56 349 OFFCURVE",
"64 357 OFFCURVE",
"73 368 CURVE",
"92 389 OFFCURVE",
"150 439 OFFCURVE",
"185 446 CURVE SMOOTH",
"205 450 OFFCURVE",
"221 440 OFFCURVE",
"230 425 CURVE",
"238 410 OFFCURVE",
"245 381 OFFCURVE",
"249 360 CURVE",
"252 339 OFFCURVE",
"257 305 OFFCURVE",
"261 289 CURVE SMOOTH",
"270 253 OFFCURVE",
"273 241 OFFCURVE",
"280 222 CURVE SMOOTH",
"283 213 OFFCURVE",
"286 206 OFFCURVE",
"289 203 CURVE",
"292 199 OFFCURVE",
"295 197 OFFCURVE",
"298 197 CURVE SMOOTH",
"325 197 OFFCURVE",
"388 310 OFFCURVE",
"364 342 CURVE SMOOTH",
"352 358 OFFCURVE",
"333 358 OFFCURVE",
"308 343 CURVE",
"323 427 OFFCURVE",
"417 472 OFFCURVE",
"469 441 CURVE SMOOTH",
"496 426 OFFCURVE",
"505 397 OFFCURVE",
"498 354 CURVE SMOOTH"
);
}
);
width = 550;
}
);
unicode = F306;
},
{
glyphname = pinterest;
lastChange = "2013-04-16 22:28:19 +0100";
layers = (
{
layerId = "A66ED1E1-DD26-4741-8836-9BF3607492E0";
name = Regular;
paths = (
{
closed = 1;
nodes = (
"194 83 OFFCURVE",
"177 32 OFFCURVE",
"134 0 CURVE",
"130 49 OFFCURVE",
"128 72 OFFCURVE",
"136 115 CURVE SMOOTH",
"144 158 OFFCURVE",
"149 177 OFFCURVE",
"160 217 CURVE SMOOTH",
"165 236 OFFCURVE",
"169 253 OFFCURVE",
"172 266 CURVE",
"156 301 OFFCURVE",
"158 349 OFFCURVE",
"187 377 CURVE SMOOTH",
"215 405 OFFCURVE",
"255 386 OFFCURVE",
"258 358 CURVE",
"259 343 OFFCURVE",
"257 327 OFFCURVE",
"252 310 CURVE",
"240 275 OFFCURVE",
"226 240 OFFCURVE",
"234 214 CURVE",
"241 188 OFFCURVE",
"290 173 OFFCURVE",
"326 208 CURVE SMOOTH",
"361 243 OFFCURVE",
"375 299 OFFCURVE",
"368 355 CURVE SMOOTH",
"361 411 OFFCURVE",
"325 450 OFFCURVE",
"266 454 CURVE SMOOTH",
"206 458 OFFCURVE",
"155 431 OFFCURVE",
"124 379 CURVE SMOOTH",
"109 353 OFFCURVE",
"103 325 OFFCURVE",
"108 294 CURVE SMOOTH",
"109 287 OFFCURVE",
"113 278 OFFCURVE",
"119 268 CURVE SMOOTH",
"131 248 OFFCURVE",
"134 244 OFFCURVE",
"121 211 CURVE",
"24 234 OFFCURVE",
"36 379 OFFCURVE",
"104 443 CURVE SMOOTH",
"171 507 OFFCURVE",
"281 521 OFFCURVE",
"365 471 CURVE SMOOTH",
"449 421 OFFCURVE",
"465 297 OFFCURVE",
"404 203 CURVE SMOOTH",
"373 156 OFFCURVE",
"331 134 OFFCURVE",
"278 138 CURVE SMOOTH",
"263 139 OFFCURVE",
"249 145 OFFCURVE",
"242 149 CURVE",
"239 151 OFFCURVE",
"234 155 OFFCURVE",
"227 160 CURVE SMOOTH",
"220 165 OFFCURVE",
"214 168 OFFCURVE",
"211 170 CURVE"
);
}
);
width = 490;
}
);
unicode = F312;
},
{
glyphname = rdio;
lastChange = "2013-04-16 22:28:37 +0100";
layers = (
{
layerId = "A66ED1E1-DD26-4741-8836-9BF3607492E0";
name = Regular;
paths = (
{
closed = 1;
nodes = (
"434 265 OFFCURVE",
"435 257 OFFCURVE",
"435 250 CURVE SMOOTH",
"435 143 OFFCURVE",
"349 55 OFFCURVE",
"242 55 CURVE SMOOTH",
"137 55 OFFCURVE",
"50 143 OFFCURVE",
"50 250 CURVE SMOOTH",
"50 358 OFFCURVE",
"135 445 OFFCURVE",
"242 445 CURVE SMOOTH",
"259 445 OFFCURVE",
"274 443 OFFCURVE",
"287 440 CURVE",
"287 329 LINE",
"236 346 OFFCURVE",
"180 318 OFFCURVE",
"160 274 CURVE SMOOTH",
"139 229 OFFCURVE",
"159 182 OFFCURVE",
"205 170 CURVE SMOOTH",
"251 157 OFFCURVE",
"294 181 OFFCURVE",
"318 217 CURVE",
"329 235 OFFCURVE",
"335 255 OFFCURVE",
"335 278 CURVE SMOOTH",
"335 421 LINE",
"340 418 OFFCURVE",
"344 416 OFFCURVE",
"347 414 CURVE SMOOTH",
"405 378 OFFCURVE",
"457 359 OFFCURVE",
"502 357 CURVE",
"513 356 OFFCURVE",
"513 348 OFFCURVE",
"504 331 CURVE SMOOTH",
"490 306 OFFCURVE",
"468 288 OFFCURVE",
"439 278 CURVE",
"437 277 OFFCURVE",
"435 277 OFFCURVE",
"433 276 CURVE"
);
}
);
width = 560;
}
);
unicode = F324;
},
{
glyphname = "s-facebook";
layers = (
{
layerId = "A66ED1E1-DD26-4741-8836-9BF3607492E0";
name = Regular;
paths = (
{
closed = 1;
nodes = (
"426 460 LINE SMOOTH",
"455 460 OFFCURVE",
"480 436 OFFCURVE",
"480 407 CURVE SMOOTH",
"480 84 LINE SMOOTH",
"480 55 OFFCURVE",
"455 30 OFFCURVE",
"426 30 CURVE SMOOTH",
"345 30 LINE",
"345 185 LINE",
"402 185 LINE",
"402 252 LINE",
"345 252 LINE",
"345 287 LINE SMOOTH",
"345 297 OFFCURVE",
"350 302 OFFCURVE",
"359 302 CURVE SMOOTH",
"402 302 LINE",
"402 378 LINE",
"354 378 LINE SMOOTH",
"305 378 OFFCURVE",
"267 337 OFFCURVE",
"267 285 CURVE SMOOTH",
"267 252 LINE",
"215 252 LINE",
"215 185 LINE",
"267 185 LINE",
"267 30 LINE",
"104 30 LINE SMOOTH",
"75 30 OFFCURVE",
"50 55 OFFCURVE",
"50 84 CURVE SMOOTH",
"50 407 LINE SMOOTH",
"50 436 OFFCURVE",
"75 460 OFFCURVE",
"104 460 CURVE SMOOTH"
);
}
);
width = 530;
}
);
unicode = F30E;
},
{
glyphname = skype;
lastChange = "2013-04-16 22:28:23 +0100";
layers = (
{
layerId = "A66ED1E1-DD26-4741-8836-9BF3607492E0";
name = Regular;
paths = (
{
closed = 1;
nodes = (
"506 181 OFFCURVE",
"510 161 OFFCURVE",
"510 141 CURVE SMOOTH",
"510 69 OFFCURVE",
"452 10 OFFCURVE",
"383 10 CURVE SMOOTH",
"362 10 OFFCURVE",
"342 15 OFFCURVE",
"323 26 CURVE",
"306 23 OFFCURVE",
"292 22 OFFCURVE",
"283 22 CURVE SMOOTH",
"162 22 OFFCURVE",
"63 123 OFFCURVE",
"63 248 CURVE SMOOTH",
"63 263 OFFCURVE",
"65 278 OFFCURVE",
"68 293 CURVE",
"56 313 OFFCURVE",
"50 335 OFFCURVE",
"50 360 CURVE SMOOTH",
"50 432 OFFCURVE",
"106 490 OFFCURVE",
"177 490 CURVE SMOOTH",
"202 490 OFFCURVE",
"224 483 OFFCURVE",
"245 470 CURVE",
"256 473 OFFCURVE",
"268 474 OFFCURVE",
"283 474 CURVE SMOOTH",
"404 474 OFFCURVE",
"502 373 OFFCURVE",
"502 248 CURVE SMOOTH",
"502 233 OFFCURVE",
"500 217 OFFCURVE",
"497 200 CURVE"
);
},
{
closed = 1;
nodes = (
"405 155 OFFCURVE",
"410 172 OFFCURVE",
"410 190 CURVE SMOOTH",
"410 219 OFFCURVE",
"400 241 OFFCURVE",
"377 257 CURVE",
"353 272 OFFCURVE",
"310 284 OFFCURVE",
"291 288 CURVE",
"282 289 OFFCURVE",
"264 294 OFFCURVE",
"260 295 CURVE",
"244 300 OFFCURVE",
"237 304 OFFCURVE",
"230 313 CURVE",
"227 316 OFFCURVE",
"225 321 OFFCURVE",
"225 326 CURVE SMOOTH",
"225 342 OFFCURVE",
"244 357 OFFCURVE",
"277 357 CURVE SMOOTH",
"310 357 OFFCURVE",
"325 342 OFFCURVE",
"333 323 CURVE",
"344 306 OFFCURVE",
"350 299 OFFCURVE",
"365 299 CURVE SMOOTH",
"382 299 OFFCURVE",
"397 314 OFFCURVE",
"397 331 CURVE SMOOTH",
"397 338 OFFCURVE",
"395 346 OFFCURVE",
"390 357 CURVE",
"379 373 OFFCURVE",
"363 389 OFFCURVE",
"332 400 CURVE",
"316 405 OFFCURVE",
"299 407 OFFCURVE",
"281 407 CURVE SMOOTH",
"233 407 OFFCURVE",
"194 393 OFFCURVE",
"174 366 CURVE SMOOTH",
"164 353 OFFCURVE",
"159 337 OFFCURVE",
"159 320 CURVE SMOOTH",
"159 285 OFFCURVE",
"183 258 OFFCURVE",
"211 247 CURVE",
"227 240 OFFCURVE",
"246 234 OFFCURVE",
"269 229 CURVE SMOOTH",
"273 228 OFFCURVE",
"278 227 OFFCURVE",
"284 226 CURVE",
"289 224 OFFCURVE",
"294 223 OFFCURVE",
"299 222 CURVE",
"303 221 OFFCURVE",
"306 220 OFFCURVE",
"309 219 CURVE SMOOTH",
"328 212 OFFCURVE",
"341 203 OFFCURVE",
"341 184 CURVE SMOOTH",
"341 161 OFFCURVE",
"316 144 OFFCURVE",
"280 144 CURVE SMOOTH",
"253 144 OFFCURVE",
"237 155 OFFCURVE",
"230 164 CURVE",
"222 179 OFFCURVE",
"218 186 OFFCURVE",
"217 187 CURVE",
"214 195 OFFCURVE",
"210 202 OFFCURVE",
"205 207 CURVE",
"198 212 OFFCURVE",
"192 214 OFFCURVE",
"185 214 CURVE SMOOTH",
"166 214 OFFCURVE",
"153 200 OFFCURVE",
"153 184 CURVE SMOOTH",
"153 159 OFFCURVE",
"172 127 OFFCURVE",
"203 110 CURVE SMOOTH",
"224 99 OFFCURVE",
"251 93 OFFCURVE",
"282 93 CURVE SMOOTH",
"334 93 OFFCURVE",
"376 112 OFFCURVE",
"395 140 CURVE SMOOTH"
);
}
);
width = 560;
}
);
unicode = F339;
},
{
glyphname = soundcloud;
lastChange = "2013-04-16 22:28:27 +0100";
layers = (
{
layerId = "A66ED1E1-DD26-4741-8836-9BF3607492E0";
name = Regular;
paths = (
{
closed = 1;
nodes = (
"67 164 LINE",
"67 163 OFFCURVE",
"65 162 OFFCURVE",
"62 162 CURVE SMOOTH",
"60 162 OFFCURVE",
"58 163 OFFCURVE",
"57 164 CURVE",
"50 199 LINE",
"57 235 LINE",
"58 236 OFFCURVE",
"60 237 OFFCURVE",
"62 237 CURVE SMOOTH",
"65 237 OFFCURVE",
"67 236 OFFCURVE",
"67 235 CURVE",
"75 199 LINE"
);
},
{
closed = 1;
nodes = (
"118 145 LINE",
"118 142 OFFCURVE",
"116 141 OFFCURVE",
"112 141 CURVE SMOOTH",
"108 141 OFFCURVE",
"106 142 OFFCURVE",
"106 145 CURVE",
"100 199 LINE",
"106 282 LINE",
"106 285 OFFCURVE",
"108 286 OFFCURVE",
"112 286 CURVE SMOOTH",
"116 286 OFFCURVE",
"118 285 OFFCURVE",
"118 282 CURVE",
"125 199 LINE"
);
},
{
closed = 1;
nodes = (
"169 146 LINE",
"169 143 OFFCURVE",
"167 141 OFFCURVE",
"162 141 CURVE SMOOTH",
"157 141 OFFCURVE",
"155 142 OFFCURVE",
"155 145 CURVE",
"150 199 LINE",
"155 310 LINE",
"155 313 OFFCURVE",
"157 315 OFFCURVE",
"162 315 CURVE SMOOTH",
"167 315 OFFCURVE",
"169 313 OFFCURVE",
"169 310 CURVE",
"175 199 LINE"
);
},
{
closed = 1;
nodes = (
"220 146 LINE",
"220 143 OFFCURVE",
"217 141 OFFCURVE",
"212 141 CURVE SMOOTH",
"207 141 OFFCURVE",
"204 143 OFFCURVE",
"204 146 CURVE",
"200 199 LINE",
"204 311 LINE",
"204 314 OFFCURVE",
"207 316 OFFCURVE",
"212 316 CURVE SMOOTH",
"217 316 OFFCURVE",
"220 314 OFFCURVE",
"220 311 CURVE",
"225 199 LINE"
);
},
{
closed = 1;
nodes = (
"271 147 LINE",
"271 143 OFFCURVE",
"268 141 OFFCURVE",
"262 141 CURVE SMOOTH",
"257 141 OFFCURVE",
"254 143 OFFCURVE",
"253 147 CURVE",
"250 199 LINE",
"253 327 LINE",
"254 332 OFFCURVE",
"257 334 OFFCURVE",
"262 334 CURVE SMOOTH",
"268 334 OFFCURVE",
"271 332 OFFCURVE",
"271 327 CURVE SMOOTH",
"275 199 LINE"
);
},
{
closed = 1;
nodes = (
"307 141 LINE SMOOTH",
"302 141 OFFCURVE",
"300 143 OFFCURVE",
"300 148 CURVE SMOOTH",
"300 346 LINE SMOOTH",
"300 349 OFFCURVE",
"302 352 OFFCURVE",
"306 353 CURVE",
"318 358 OFFCURVE",
"332 360 OFFCURVE",
"348 360 CURVE SMOOTH",
"407 360 OFFCURVE",
"456 316 OFFCURVE",
"461 260 CURVE",
"469 263 OFFCURVE",
"477 265 OFFCURVE",
"486 265 CURVE SMOOTH",
"521 265 OFFCURVE",
"550 236 OFFCURVE",
"550 203 CURVE SMOOTH",
"550 168 OFFCURVE",
"521 140 OFFCURVE",
"486 140 CURVE SMOOTH"
);
}
);
width = 600;
}
);
unicode = F348;
},
{
glyphname = spotify;
layers = (
{
layerId = "A66ED1E1-DD26-4741-8836-9BF3607492E0";
name = Regular;
paths = (
{
closed = 1;
nodes = (
"391 470 OFFCURVE",
"490 371 OFFCURVE",
"490 250 CURVE SMOOTH",
"490 177 OFFCURVE",
"454 110 OFFCURVE",
"395 69 CURVE",
"328 182 OFFCURVE",
"177 178 OFFCURVE",
"104 105 CURVE",
"68 146 OFFCURVE",
"50 195 OFFCURVE",
"50 250 CURVE SMOOTH",
"50 373 OFFCURVE",
"147 470 OFFCURVE",
"270 470 CURVE SMOOTH"
);
},
{
closed = 1;
nodes = (
"382 179 OFFCURVE",
"381 186 OFFCURVE",
"373 191 CURVE SMOOTH",
"316 226 OFFCURVE",
"245 234 OFFCURVE",
"162 215 CURVE",
"145 210 OFFCURVE",
"151 185 OFFCURVE",
"168 188 CURVE",
"244 206 OFFCURVE",
"308 199 OFFCURVE",
"359 168 CURVE",
"366 163 OFFCURVE",
"372 165 OFFCURVE",
"377 172 CURVE SMOOTH"
);
},
{
closed = 1;
nodes = (
"400 216 OFFCURVE",
"418 246 OFFCURVE",
"398 258 CURVE SMOOTH",
"331 299 OFFCURVE",
"232 310 OFFCURVE",
"155 287 CURVE SMOOTH",
"144 284 OFFCURVE",
"140 276 OFFCURVE",
"143 265 CURVE",
"147 254 OFFCURVE",
"154 251 OFFCURVE",
"164 254 CURVE SMOOTH",
"233 275 OFFCURVE",
"322 265 OFFCURVE",
"381 229 CURVE"
);
},
{
closed = 1;
nodes = (
"429 286 OFFCURVE",
"450 319 OFFCURVE",
"427 334 CURVE",
"350 379 OFFCURVE",
"215 388 OFFCURVE",
"142 363 CURVE SMOOTH",
"133 360 OFFCURVE",
"126 349 OFFCURVE",
"129 338 CURVE",
"132 325 OFFCURVE",
"141 321 OFFCURVE",
"154 324 CURVE",
"217 347 OFFCURVE",
"339 339 OFFCURVE",
"406 299 CURVE SMOOTH"
);
},
{
closed = 1;
nodes = (
"278 90 OFFCURVE",
"307 72 OFFCURVE",
"324 37 CURVE",
"303 32 OFFCURVE",
"285 30 OFFCURVE",
"270 30 CURVE SMOOTH",
"232 30 OFFCURVE",
"196 39 OFFCURVE",
"163 58 CURVE",
"182 82 OFFCURVE",
"207 93 OFFCURVE",
"238 92 CURVE SMOOTH"
);
}
);
width = 540;
}
);
unicode = F327;
},
{
glyphname = tumblr;
layers = (
{
layerId = "A66ED1E1-DD26-4741-8836-9BF3607492E0";
name = Regular;
paths = (
{
closed = 1;
nodes = (
"330 46 LINE",
"298 29 OFFCURVE",
"262 20 OFFCURVE",
"226 20 CURVE SMOOTH",
"187 20 OFFCURVE",
"149 34 OFFCURVE",
"130 51 CURVE SMOOTH",
"118 62 OFFCURVE",
"110 72 OFFCURVE",
"107 83 CURVE",
"102 93 OFFCURVE",
"100 109 OFFCURVE",
"100 131 CURVE SMOOTH",
"100 292 LINE",
"50 292 LINE",
"50 357 LINE",
"86 369 OFFCURVE",
"111 390 OFFCURVE",
"127 422 CURVE SMOOTH",
"135 439 OFFCURVE",
"140 459 OFFCURVE",
"142 480 CURVE",
"207 480 LINE",
"207 364 LINE",
"315 364 LINE",
"315 292 LINE",
"207 292 LINE",
"207 174 LINE SMOOTH",
"207 146 OFFCURVE",
"208 129 OFFCURVE",
"211 123 CURVE",
"218 107 OFFCURVE",
"234 95 OFFCURVE",
"261 95 CURVE SMOOTH",
"284 95 OFFCURVE",
"307 103 OFFCURVE",
"330 118 CURVE"
);
}
);
width = 380;
}
);
unicode = F315;
},
{
glyphname = twitter;
layers = (
{
layerId = "A66ED1E1-DD26-4741-8836-9BF3607492E0";
name = Regular;
paths = (
{
closed = 1;
nodes = (
"498 375 OFFCURVE",
"482 359 OFFCURVE",
"463 344 CURVE",
"463 332 LINE SMOOTH",
"463 245 OFFCURVE",
"424 161 OFFCURVE",
"340 106 CURVE SMOOTH",
"298 78 OFFCURVE",
"250 64 OFFCURVE",
"195 64 CURVE SMOOTH",
"142 64 OFFCURVE",
"93 78 OFFCURVE",
"50 106 CURVE",
"55 105 OFFCURVE",
"62 105 OFFCURVE",
"73 105 CURVE SMOOTH",
"117 105 OFFCURVE",
"156 118 OFFCURVE",
"190 145 CURVE",
"149 146 OFFCURVE",
"114 172 OFFCURVE",
"102 211 CURVE",
"105 210 OFFCURVE",
"111 209 OFFCURVE",
"119 209 CURVE SMOOTH",
"128 209 OFFCURVE",
"136 210 OFFCURVE",
"144 212 CURVE",
"100 221 OFFCURVE",
"69 260 OFFCURVE",
"69 305 CURVE SMOOTH",
"69 306 LINE",
"81 299 OFFCURVE",
"95 295 OFFCURVE",
"111 294 CURVE",
"83 313 OFFCURVE",
"69 340 OFFCURVE",
"69 373 CURVE SMOOTH",
"69 389 OFFCURVE",
"73 405 OFFCURVE",
"82 420 CURVE",
"133 357 OFFCURVE",
"198 325 OFFCURVE",
"277 322 CURVE",
"275 328 OFFCURVE",
"274 335 OFFCURVE",
"274 343 CURVE SMOOTH",
"274 395 OFFCURVE",
"316 437 OFFCURVE",
"369 437 CURVE SMOOTH",
"396 437 OFFCURVE",
"419 427 OFFCURVE",
"437 408 CURVE",
"457 412 OFFCURVE",
"477 419 OFFCURVE",
"497 430 CURVE",
"490 408 OFFCURVE",
"477 391 OFFCURVE",
"456 378 CURVE",
"475 381 OFFCURVE",
"493 386 OFFCURVE",
"510 393 CURVE"
);
}
);
width = 560;
}
);
unicode = F309;
},
{
glyphname = vcard;
lastChange = "2013-04-14 00:08:44 +0100";
layers = (
{
layerId = "A66ED1E1-DD26-4741-8836-9BF3607492E0";
name = Regular;
paths = (
{
closed = 1;
nodes = (
"500 450 LINE SMOOTH",
"528 450 OFFCURVE",
"550 428 OFFCURVE",
"550 400 CURVE SMOOTH",
"550 100 LINE SMOOTH",
"550 73 OFFCURVE",
"528 50 OFFCURVE",
"500 50 CURVE SMOOTH",
"100 50 LINE SMOOTH",
"73 50 OFFCURVE",
"50 73 OFFCURVE",
"50 100 CURVE SMOOTH",
"50 400 LINE SMOOTH",
"50 428 OFFCURVE",
"73 450 OFFCURVE",
"100 450 CURVE SMOOTH"
);
},
{
closed = 1;
nodes = (
"500 100 LINE",
"500 400 LINE",
"100 400 LINE",
"100 100 LINE"
);
},
{
closed = 1;
nodes = (
"275 198 LINE",
"275 153 LINE",
"150 153 LINE",
"150 198 LINE"
);
},
{
closed = 1;
nodes = (
"275 273 LINE",
"275 228 LINE",
"150 228 LINE",
"150 273 LINE"
);
},
{
closed = 1;
nodes = (
"275 348 LINE",
"275 303 LINE",
"150 303 LINE",
"150 348 LINE"
);
},
{
closed = 1;
nodes = (
"448 188 LINE",
"450 153 LINE",
"325 153 LINE",
"325 176 OFFCURVE",
"326 188 OFFCURVE",
"328 188 CURVE",
"356 195 OFFCURVE",
"370 206 OFFCURVE",
"370 221 CURVE SMOOTH",
"370 226 OFFCURVE",
"366 236 OFFCURVE",
"357 249 CURVE SMOOTH",
"348 262 OFFCURVE",
"343 277 OFFCURVE",
"343 293 CURVE SMOOTH",
"343 330 OFFCURVE",
"358 348 OFFCURVE",
"388 348 CURVE SMOOTH",
"418 348 OFFCURVE",
"433 330 OFFCURVE",
"433 293 CURVE SMOOTH",
"433 277 OFFCURVE",
"428 262 OFFCURVE",
"419 249 CURVE SMOOTH",
"410 236 OFFCURVE",
"405 226 OFFCURVE",
"405 221 CURVE SMOOTH",
"405 208 OFFCURVE",
"422 196 OFFCURVE",
"437 192 CURVE"
);
}
);
width = 600;
}
);
unicode = E722;
},
